<svg xmlns="http://www.w3.org/2000/svg" xmlns:xlink="http://www.w3.org/1999/xlink" width="500" zoomAndPan="magnify" viewBox="0 0 375 374.999991" height="500" preserveAspectRatio="xMidYMid meet" version="1.0"><defs><g/><clipPath id="0b055ff042"><path d="M 72.097656 37.5 L 337.597656 37.5 L 337.597656 238.5 L 72.097656 238.5 Z M 72.097656 37.5 " clip-rule="nonzero"/></clipPath></defs><g clip-path="url(#0b055ff042)"><path fill="#0097b2" d="M 84.96875 198.855469 L 84.96875 99.550781 L 98.234375 99.550781 L 98.234375 86.6875 L 84.792969 86.6875 C 77.8125 86.691406 72.097656 92.398438 72.097656 99.378906 L 72.097656 199.03125 C 72.097656 206.011719 77.8125 211.722656 84.792969 211.722656 L 169.964844 211.722656 C 158.058594 206.660156 145.5625 203.035156 132.789062 200.953125 C 129.589844 200.429688 126.375 200.003906 123.148438 199.671875 C 120.535156 199.40625 117.917969 199.203125 115.292969 199.0625 C 113.277344 198.953125 111.253906 198.886719 109.234375 198.855469 L 103.410156 198.855469 L 98.234375 198.890625 L 98.234375 198.855469 Z M 240.191406 174.207031 C 224.96875 181.523438 210.519531 190.367188 197.070312 200.617188 C 209.761719 185.351562 224.242188 171.695312 240.191406 159.933594 L 240.191406 58.089844 C 223.777344 62.832031 208.324219 70.582031 194.644531 80.992188 C 207.496094 67.664062 223.039062 57.292969 240.191406 50.527344 C 243.496094 49.222656 246.855469 48.054688 250.273438 47.027344 L 250.273438 169.636719 C 246.878906 171.085938 243.519531 172.609375 240.191406 174.207031 Z M 289.203125 198.855469 L 289.203125 112.898438 C 289.542969 112.921875 289.882812 112.933594 290.226562 112.933594 L 302.070312 112.933594 L 302.070312 199.027344 C 302.070312 206.007812 296.355469 211.71875 289.375 211.71875 L 204.207031 211.71875 C 216.113281 206.65625 228.609375 203.03125 241.382812 200.949219 C 244.582031 200.425781 247.796875 200 251.023438 199.667969 C 253.636719 199.402344 256.253906 199.199219 258.878906 199.058594 C 260.894531 198.953125 262.917969 198.882812 264.9375 198.851562 L 270.761719 198.851562 L 275.9375 198.886719 L 275.9375 198.851562 L 289.203125 198.851562 Z M 258.488281 181.207031 L 258.488281 68.679688 L 268.566406 68.679688 L 268.566406 191.472656 C 265.199219 191.449219 261.839844 191.527344 258.488281 191.703125 C 255.742188 191.847656 253.003906 192.058594 250.273438 192.339844 C 246.898438 192.683594 243.539062 193.128906 240.191406 193.675781 C 224.933594 196.167969 210.042969 200.753906 195.949219 207.335938 C 209.089844 196.90625 224.144531 189.273438 240.191406 184.828125 C 243.515625 183.910156 246.875 183.125 250.273438 182.480469 C 252.988281 181.96875 255.730469 181.542969 258.488281 181.207031 Z M 154.730469 225.890625 L 177.675781 225.890625 L 177.675781 222.492188 C 177.675781 220.773438 179.265625 219.371094 181.214844 219.371094 L 192.960938 219.371094 C 194.90625 219.371094 196.496094 220.777344 196.496094 222.492188 L 196.496094 225.890625 L 219.441406 225.890625 C 222.476562 225.890625 224.960938 228.082031 224.960938 230.761719 L 224.960938 233.578125 C 224.960938 236.257812 222.476562 238.449219 219.441406 238.449219 L 154.730469 238.449219 C 151.695312 238.449219 149.210938 236.257812 149.210938 233.578125 L 149.210938 230.761719 C 149.210938 228.082031 151.695312 225.890625 154.730469 225.890625 Z M 115.683594 181.207031 L 115.683594 68.679688 L 105.605469 68.679688 L 105.605469 191.472656 C 108.972656 191.449219 112.332031 191.527344 115.683594 191.703125 C 118.429688 191.847656 121.167969 192.058594 123.898438 192.339844 C 127.273438 192.683594 130.632812 193.128906 133.980469 193.675781 C 149.238281 196.167969 164.128906 200.753906 178.21875 207.335938 C 165.082031 196.90625 150.027344 189.273438 133.980469 184.828125 C 130.65625 183.910156 127.292969 183.125 123.898438 182.480469 C 121.179688 181.96875 118.441406 181.542969 115.683594 181.207031 Z M 305.734375 37.542969 L 314.730469 37.542969 C 315.4375 37.542969 316.007812 38.113281 316.007812 38.816406 L 316.007812 47.816406 C 316.007812 48.515625 315.4375 49.089844 314.730469 49.089844 L 305.734375 49.089844 C 305.03125 49.089844 304.457031 48.515625 304.457031 47.816406 L 304.457031 38.816406 C 304.457031 38.113281 305.03125 37.542969 305.734375 37.542969 Z M 290.226562 70.679688 L 312.476562 70.679688 C 312.828125 70.679688 313.132812 70.550781 313.378906 70.304688 L 317.980469 65.707031 C 318.226562 65.460938 318.351562 65.15625 318.351562 64.804688 L 318.351562 52.707031 C 318.351562 52.007812 318.921875 51.433594 319.628906 51.433594 L 336.328125 51.433594 C 337.035156 51.433594 337.605469 52.007812 337.605469 52.707031 L 337.605469 69.402344 C 337.605469 70.105469 337.035156 70.679688 336.328125 70.679688 L 324.226562 70.679688 C 323.875 70.679688 323.574219 70.804688 323.328125 71.050781 L 318.726562 75.652344 C 318.480469 75.898438 318.351562 76.199219 318.351562 76.550781 L 318.351562 98.800781 C 318.351562 99.5 317.777344 100.074219 317.078125 100.074219 L 290.226562 100.074219 C 289.523438 100.074219 288.949219 99.5 288.949219 98.800781 L 288.949219 71.953125 C 288.953125 71.25 289.523438 70.679688 290.226562 70.679688 Z M 133.980469 174.207031 C 149.203125 181.523438 163.652344 190.367188 177.101562 200.617188 C 164.410156 185.351562 149.925781 171.695312 133.980469 159.933594 L 133.980469 58.089844 C 150.390625 62.832031 165.847656 70.582031 179.523438 80.992188 C 166.667969 67.664062 151.128906 57.292969 133.976562 50.527344 C 130.671875 49.222656 127.308594 48.054688 123.894531 47.027344 L 123.894531 169.636719 C 127.292969 171.085938 130.652344 172.609375 133.980469 174.207031 Z M 133.980469 174.207031 " fill-opacity="1" fill-rule="evenodd"/></g><g fill="#0097b2" fill-opacity="1"><g transform="translate(136.643192, 281.094264)"><g><path d="M 6.703125 0 L 6.703125 -7.554688 L 15.109375 -7.554688 L 15.109375 0 L 19.980469 0 L 19.980469 -6.855469 C 19.980469 -8.527344 19.066406 -9.441406 17.394531 -9.441406 L 14.253906 -9.441406 L 14.253906 -10.660156 C 16.84375 -10.964844 19.707031 -11.941406 19.707031 -15.472656 C 19.707031 -20.285156 15.261719 -21.476562 10.144531 -21.476562 L 1.828125 -21.476562 L 1.828125 0 Z M 6.703125 -17.210938 L 10.144531 -17.210938 C 13.035156 -17.210938 14.835938 -17.210938 14.835938 -14.5 C 14.835938 -11.820312 13.035156 -11.820312 10.144531 -11.820312 L 6.703125 -11.820312 Z M 6.703125 -17.210938 "/></g></g></g><g fill="#0097b2" fill-opacity="1"><g transform="translate(166.951403, 281.094264)"><g><path d="M 17.148438 0 L 17.148438 -4.265625 L 6.703125 -4.265625 L 6.703125 -8.621094 L 15.625 -8.621094 L 15.625 -12.886719 L 6.703125 -12.886719 L 6.703125 -17.210938 L 17.148438 -17.210938 L 17.148438 -21.476562 L 1.828125 -21.476562 L 1.828125 0 Z M 17.148438 0 "/></g></g></g><g fill="#0097b2" fill-opacity="1"><g transform="translate(193.81757, 281.094264)"><g><path d="M 6.703125 0 L 6.703125 -6.703125 L 16.449219 -7.308594 L 16.449219 -11.636719 L 6.703125 -11.027344 L 6.703125 -17.210938 L 17.148438 -17.210938 L 17.148438 -21.476562 L 1.828125 -21.476562 L 1.828125 0 Z M 6.703125 0 "/></g></g></g><g fill="#0097b2" fill-opacity="1"><g transform="translate(220.683736, 281.094264)"><g><path d="M 16.144531 -21.476562 L 1.523438 -21.476562 L 1.523438 -17.210938 L 6.398438 -17.210938 L 6.398438 -4.265625 L 1.523438 -4.265625 L 1.523438 0 L 16.144531 0 L 16.144531 -4.265625 L 11.269531 -4.265625 L 11.269531 -17.210938 L 16.144531 -17.210938 Z M 16.144531 -21.476562 "/></g></g></g><g fill="#000000" fill-opacity="1"><g transform="translate(88.163408, 313.568032)"><g><path d="M 5.347656 -12.695312 L 1.316406 -12.695312 L 1.316406 0 L 5.347656 0 C 8.429688 0 11.707031 -0.882812 11.707031 -6.359375 C 11.707031 -11.8125 8.429688 -12.695312 5.347656 -12.695312 Z M 2.792969 -1.261719 L 2.792969 -11.4375 L 5.347656 -11.4375 C 7.601562 -11.4375 10.230469 -11.039062 10.230469 -6.359375 C 10.230469 -1.65625 7.601562 -1.261719 5.347656 -1.261719 Z M 2.792969 -1.261719 "/></g></g></g><g fill="#000000" fill-opacity="1"><g transform="translate(106.028789, 313.568032)"><g><path d="M 0.953125 -4.484375 C 0.953125 -1.871094 2.828125 0.179688 5.691406 0.179688 C 8.535156 0.179688 10.390625 -1.871094 10.390625 -4.484375 C 10.390625 -7.078125 8.535156 -9.132812 5.691406 -9.132812 C 2.828125 -9.132812 0.953125 -7.078125 0.953125 -4.484375 Z M 2.429688 -4.484375 C 2.429688 -6.339844 3.566406 -7.871094 5.691406 -7.871094 C 7.796875 -7.871094 8.933594 -6.339844 8.933594 -4.484375 C 8.933594 -2.613281 7.796875 -1.082031 5.691406 -1.082031 C 3.566406 -1.082031 2.429688 -2.613281 2.429688 -4.484375 Z M 2.429688 -4.484375 "/></g></g></g><g fill="#000000" fill-opacity="1"><g transform="translate(122.41749, 313.568032)"><g><path d="M 0.953125 -4.484375 C 0.953125 -1.890625 2.628906 0.179688 5.527344 0.179688 C 7.257812 0.179688 9.472656 -0.792969 9.707031 -3.386719 L 8.210938 -3.386719 C 7.960938 -1.675781 6.824219 -1.082031 5.527344 -1.082031 C 3.402344 -1.082031 2.429688 -2.628906 2.429688 -4.484375 C 2.429688 -6.320312 3.402344 -7.871094 5.527344 -7.871094 C 6.824219 -7.871094 7.960938 -7.277344 8.210938 -5.566406 L 9.707031 -5.566406 C 9.472656 -8.160156 7.257812 -9.132812 5.527344 -9.132812 C 2.628906 -9.132812 0.953125 -7.058594 0.953125 -4.484375 Z M 0.953125 -4.484375 "/></g></g></g><g fill="#000000" fill-opacity="1"><g transform="translate(138.10387, 313.568032)"><g><path d="M 4.878906 -1.082031 C 3.332031 -1.082031 2.613281 -1.800781 2.613281 -3.675781 L 2.613281 -8.949219 L 1.132812 -8.949219 L 1.132812 -3.476562 C 1.132812 -0.992188 2.449219 0.179688 4.484375 0.179688 C 6.429688 0.179688 7.5625 -0.953125 7.925781 -2.574219 L 8.339844 -2.574219 L 8.105469 -1.550781 L 8.105469 0 L 9.5625 0 L 9.5625 -8.949219 L 8.105469 -8.949219 L 8.105469 -4.96875 C 8.105469 -2.574219 6.773438 -1.082031 4.878906 -1.082031 Z M 4.878906 -1.082031 "/></g></g></g><g fill="#000000" fill-opacity="1"><g transform="translate(153.84428, 313.568032)"><g><path d="M 12.335938 -9.132812 C 10.425781 -9.132812 9.492188 -8.03125 9.132812 -6.410156 L 8.859375 -6.410156 C 8.664062 -8.015625 7.796875 -9.132812 6.175781 -9.132812 C 4.269531 -9.132812 3.332031 -8.03125 2.972656 -6.410156 L 2.558594 -6.410156 L 2.792969 -7.421875 L 2.792969 -8.949219 L 1.316406 -8.949219 L 1.316406 0 L 2.792969 0 L 2.792969 -3.945312 C 2.792969 -6.285156 3.855469 -7.871094 5.636719 -7.871094 C 7.097656 -7.871094 7.472656 -7.023438 7.472656 -5.292969 L 7.472656 0 L 8.949219 0 L 8.949219 -3.945312 C 8.949219 -6.285156 10.011719 -7.871094 11.796875 -7.871094 C 13.253906 -7.871094 13.632812 -7.023438 13.632812 -5.292969 L 13.632812 0 L 15.109375 0 L 15.109375 -5.636719 C 15.109375 -7.636719 14.210938 -9.132812 12.335938 -9.132812 Z M 12.335938 -9.132812 "/></g></g></g><g fill="#000000" fill-opacity="1"><g transform="translate(175.113222, 313.568032)"><g><path d="M 0.953125 -4.59375 C 0.953125 -2.015625 2.304688 0.179688 5.511719 0.179688 C 8.355469 0.179688 9.4375 -1.746094 9.78125 -3.132812 L 8.300781 -3.132812 C 7.976562 -1.765625 6.988281 -1.042969 5.511719 -1.042969 C 3.296875 -1.042969 2.484375 -2.503906 2.394531 -4.195312 L 9.472656 -4.195312 L 9.472656 -4.773438 C 9.472656 -7.527344 7.816406 -9.132812 5.292969 -9.132812 C 2.753906 -9.132812 0.953125 -7.472656 0.953125 -4.59375 Z M 2.394531 -5.3125 C 2.394531 -6.753906 3.53125 -7.886719 5.292969 -7.886719 C 7.078125 -7.886719 8.03125 -6.753906 8.03125 -5.3125 Z M 2.394531 -5.3125 "/></g></g></g><g fill="#000000" fill-opacity="1"><g transform="translate(190.871631, 313.568032)"><g><path d="M 6.015625 -7.871094 C 7.546875 -7.871094 8.285156 -7.148438 8.285156 -5.277344 L 8.285156 0 L 9.742188 0 L 9.742188 -5.476562 C 9.742188 -7.960938 8.429688 -9.132812 6.410156 -9.132812 C 4.464844 -9.132812 3.332031 -7.996094 2.972656 -6.375 L 2.558594 -6.375 L 2.792969 -7.402344 L 2.792969 -8.949219 L 1.316406 -8.949219 L 1.316406 0 L 2.792969 0 L 2.792969 -3.960938 C 2.792969 -6.375 4.125 -7.871094 6.015625 -7.871094 Z M 6.015625 -7.871094 "/></g></g></g><g fill="#000000" fill-opacity="1"><g transform="translate(206.792116, 313.568032)"><g><path d="M 3.855469 -7.691406 L 6.644531 -7.691406 L 6.644531 -8.949219 L 3.855469 -8.949219 L 3.855469 -11.707031 L 2.394531 -11.257812 L 2.394531 -8.949219 L 0.414062 -8.949219 L 0.414062 -7.691406 L 2.394531 -7.691406 L 2.394531 -1.042969 C 2.394531 -0.214844 2.773438 0.234375 3.621094 0.179688 L 7.003906 0 L 7.003906 -1.261719 L 3.855469 -1.0625 Z M 3.855469 -7.691406 "/></g></g></g><g fill="#000000" fill-opacity="1"><g transform="translate(219.615197, 313.568032)"><g><path d="M 0.953125 -2.484375 C 0.953125 -1.550781 1.351562 0.179688 3.945312 0.179688 C 6.105469 0.179688 7.058594 -1.097656 7.402344 -2.46875 L 7.835938 -2.46875 L 7.601562 -1.53125 L 7.601562 -1.042969 C 7.601562 -0.378906 7.976562 0 8.664062 0 L 10.246094 0 L 10.246094 -1.261719 L 8.933594 -1.261719 L 8.933594 -5.078125 C 8.933594 -7.472656 7.4375 -9.132812 4.933594 -9.132812 C 2.394531 -9.132812 0.992188 -7.472656 0.992188 -5.617188 L 2.429688 -5.617188 C 2.429688 -7.3125 3.636719 -7.886719 4.933594 -7.886719 C 6.484375 -7.886719 7.367188 -7.078125 7.457031 -5.4375 L 3.890625 -5.097656 C 1.800781 -4.878906 0.953125 -3.90625 0.953125 -2.484375 Z M 2.429688 -2.664062 C 2.429688 -3.546875 3.007812 -3.890625 4.140625 -4 L 7.457031 -4.339844 C 7.457031 -2.484375 6.160156 -1.082031 4.125 -1.082031 C 3.078125 -1.082031 2.429688 -1.640625 2.429688 -2.664062 Z M 2.429688 -2.664062 "/></g></g></g><g fill="#000000" fill-opacity="1"><g transform="translate(235.30158, 313.568032)"><g><path d="M 3.855469 -7.691406 L 6.644531 -7.691406 L 6.644531 -8.949219 L 3.855469 -8.949219 L 3.855469 -11.707031 L 2.394531 -11.257812 L 2.394531 -8.949219 L 0.414062 -8.949219 L 0.414062 -7.691406 L 2.394531 -7.691406 L 2.394531 -1.042969 C 2.394531 -0.214844 2.773438 0.234375 3.621094 0.179688 L 7.003906 0 L 7.003906 -1.261719 L 3.855469 -1.0625 Z M 3.855469 -7.691406 "/></g></g></g><g fill="#000000" fill-opacity="1"><g transform="translate(248.124661, 313.568032)"><g><path d="M 3.945312 -10.375 C 4.664062 -10.375 5.242188 -10.914062 5.242188 -11.632812 C 5.242188 -12.320312 4.664062 -12.878906 3.945312 -12.878906 C 3.207031 -12.878906 2.648438 -12.320312 2.648438 -11.632812 C 2.648438 -10.914062 3.207031 -10.375 3.945312 -10.375 Z M 7.382812 0 L 7.382812 -1.261719 L 4.863281 -1.261719 L 4.863281 -8.050781 C 4.863281 -8.734375 4.539062 -9.203125 3.691406 -9.132812 L 1.621094 -8.949219 L 1.621094 -7.691406 L 3.476562 -7.851562 L 3.476562 -1.261719 L 0.953125 -1.261719 L 0.953125 0 Z M 7.382812 0 "/></g></g></g><g fill="#000000" fill-opacity="1"><g transform="translate(261.127816, 313.568032)"><g><path d="M 0.953125 -4.484375 C 0.953125 -1.871094 2.828125 0.179688 5.691406 0.179688 C 8.535156 0.179688 10.390625 -1.871094 10.390625 -4.484375 C 10.390625 -7.078125 8.535156 -9.132812 5.691406 -9.132812 C 2.828125 -9.132812 0.953125 -7.078125 0.953125 -4.484375 Z M 2.429688 -4.484375 C 2.429688 -6.339844 3.566406 -7.871094 5.691406 -7.871094 C 7.796875 -7.871094 8.933594 -6.339844 8.933594 -4.484375 C 8.933594 -2.613281 7.796875 -1.082031 5.691406 -1.082031 C 3.566406 -1.082031 2.429688 -2.613281 2.429688 -4.484375 Z M 2.429688 -4.484375 "/></g></g></g><g fill="#000000" fill-opacity="1"><g transform="translate(277.516523, 313.568032)"><g><path d="M 6.015625 -7.871094 C 7.546875 -7.871094 8.285156 -7.148438 8.285156 -5.277344 L 8.285156 0 L 9.742188 0 L 9.742188 -5.476562 C 9.742188 -7.960938 8.429688 -9.132812 6.410156 -9.132812 C 4.464844 -9.132812 3.332031 -7.996094 2.972656 -6.375 L 2.558594 -6.375 L 2.792969 -7.402344 L 2.792969 -8.949219 L 1.316406 -8.949219 L 1.316406 0 L 2.792969 0 L 2.792969 -3.960938 C 2.792969 -6.375 4.125 -7.871094 6.015625 -7.871094 Z M 6.015625 -7.871094 "/></g></g></g><g fill="#000000" fill-opacity="1"><g transform="translate(136.158821, 331.299157)"><g><path d="M 5.492188 0 C 8.574219 0 10.5 -0.808594 10.5 -3.367188 C 10.5 -5.636719 8.96875 -6.429688 7.023438 -6.464844 L 7.023438 -6.898438 C 8.339844 -6.988281 9.5625 -7.746094 9.5625 -9.582031 C 9.5625 -12.085938 7.78125 -12.695312 4.683594 -12.695312 L 1.316406 -12.695312 L 1.316406 0 Z M 2.792969 -11.4375 L 4.738281 -11.4375 C 6.808594 -11.4375 8.085938 -11.308594 8.085938 -9.347656 C 8.085938 -7.546875 6.808594 -7.238281 4.738281 -7.238281 L 2.792969 -7.238281 Z M 2.792969 -5.980469 L 5.546875 -5.980469 C 7.707031 -5.980469 9.023438 -5.476562 9.023438 -3.621094 C 9.023438 -1.621094 7.707031 -1.261719 5.546875 -1.261719 L 2.792969 -1.261719 Z M 2.792969 -5.980469 "/></g></g></g><g fill="#000000" fill-opacity="1"><g transform="translate(152.817653, 331.299157)"><g><path d="M 2.792969 0 L 2.792969 -7.851562 L 7.527344 -7.691406 L 7.527344 -8.949219 L 2.558594 -9.113281 C 1.710938 -9.148438 1.316406 -8.734375 1.316406 -7.886719 L 1.316406 0 Z M 2.792969 0 "/></g></g></g><g fill="#000000" fill-opacity="1"><g transform="translate(165.784794, 331.299157)"><g><path d="M 0.953125 -4.484375 C 0.953125 -1.871094 2.828125 0.179688 5.691406 0.179688 C 8.535156 0.179688 10.390625 -1.871094 10.390625 -4.484375 C 10.390625 -7.078125 8.535156 -9.132812 5.691406 -9.132812 C 2.828125 -9.132812 0.953125 -7.078125 0.953125 -4.484375 Z M 2.429688 -4.484375 C 2.429688 -6.339844 3.566406 -7.871094 5.691406 -7.871094 C 7.796875 -7.871094 8.933594 -6.339844 8.933594 -4.484375 C 8.933594 -2.613281 7.796875 -1.082031 5.691406 -1.082031 C 3.566406 -1.082031 2.429688 -2.613281 2.429688 -4.484375 Z M 2.429688 -4.484375 "/></g></g></g><g fill="#000000" fill-opacity="1"><g transform="translate(182.173497, 331.299157)"><g><path d="M 2.773438 0 L 5.636719 0 L 7.527344 -8.230469 L 7.960938 -8.230469 L 9.851562 0 L 12.714844 0 L 15.054688 -8.949219 L 13.667969 -8.949219 L 11.488281 -0.71875 L 11.074219 -0.71875 L 9.183594 -8.949219 L 6.304688 -8.949219 L 4.414062 -0.71875 L 3.980469 -0.71875 L 1.820312 -8.949219 L 0.414062 -8.949219 Z M 2.773438 0 "/></g></g></g><g fill="#000000" fill-opacity="1"><g transform="translate(202.686081, 331.299157)"><g><path d="M 8.390625 -2.324219 C 8.390625 -4.25 6.484375 -4.648438 4.71875 -5.222656 C 3.277344 -5.691406 2.664062 -5.960938 2.664062 -6.824219 C 2.664062 -7.636719 3.457031 -7.925781 4.449219 -7.925781 C 5.871094 -7.925781 6.609375 -7.328125 6.609375 -6.125 L 8.085938 -6.125 C 8.085938 -7.601562 7.238281 -9.132812 4.449219 -9.132812 C 2.394531 -9.132812 1.1875 -8.195312 1.1875 -6.773438 C 1.1875 -5.152344 2.558594 -4.628906 4.25 -4.089844 C 5.710938 -3.636719 6.914062 -3.441406 6.914062 -2.269531 C 6.914062 -1.351562 6.265625 -1.027344 4.878906 -1.027344 C 3.152344 -1.027344 2.25 -1.746094 2.25 -3.296875 L 0.773438 -3.296875 C 0.773438 -1.171875 1.964844 0.179688 4.863281 0.179688 C 7.546875 0.179688 8.390625 -0.972656 8.390625 -2.324219 Z M 8.390625 -2.324219 "/></g></g></g><g fill="#000000" fill-opacity="1"><g transform="translate(216.697693, 331.299157)"><g><path d="M 0.953125 -4.59375 C 0.953125 -2.015625 2.304688 0.179688 5.511719 0.179688 C 8.355469 0.179688 9.4375 -1.746094 9.78125 -3.132812 L 8.300781 -3.132812 C 7.976562 -1.765625 6.988281 -1.042969 5.511719 -1.042969 C 3.296875 -1.042969 2.484375 -2.503906 2.394531 -4.195312 L 9.472656 -4.195312 L 9.472656 -4.773438 C 9.472656 -7.527344 7.816406 -9.132812 5.292969 -9.132812 C 2.753906 -9.132812 0.953125 -7.472656 0.953125 -4.59375 Z M 2.394531 -5.3125 C 2.394531 -6.753906 3.53125 -7.886719 5.292969 -7.886719 C 7.078125 -7.886719 8.03125 -6.753906 8.03125 -5.3125 Z M 2.394531 -5.3125 "/></g></g></g><g fill="#000000" fill-opacity="1"><g transform="translate(232.456102, 331.299157)"><g><path d="M 2.792969 0 L 2.792969 -7.851562 L 7.527344 -7.691406 L 7.527344 -8.949219 L 2.558594 -9.113281 C 1.710938 -9.148438 1.316406 -8.734375 1.316406 -7.886719 L 1.316406 0 Z M 2.792969 0 "/></g></g></g></svg>